<?xml version="1.0" encoding="UTF-8"?>
<!DOCTYPE svg PUBLIC "-//W3C//DTD SVG 1.1//EN" "http://www.w3.org/Graphics/SVG/1.1/DTD/svg11.dtd">
<!-- Creator: CorelDRAW X6 -->
<svg xmlns="http://www.w3.org/2000/svg" xml:space="preserve" width="620px" height="86px" version="1.1" style="shape-rendering:geometricPrecision; text-rendering:geometricPrecision; image-rendering:optimizeQuality; fill-rule:evenodd; clip-rule:evenodd"
viewBox="0 0 6195 858"
 xmlns:xlink="http://www.w3.org/1999/xlink">
 <defs>
  <style type="text/css">
   <![CDATA[
    .fil1 {fill:#685C53;fill-rule:nonzero}
    .fil0 {fill:#9B243E;fill-rule:nonzero}
    .fil2 {fill:#A6A095;fill-rule:nonzero}
   ]]>
  </style>
 </defs>
 <g id="Ebene_x0020_1">
  <metadata id="CorelCorpID_0Corel-Layer"/>
  <polygon class="fil0" points="341,487 291,487 291,252 341,252 "/>
  <polygon class="fil0" points="485,487 438,487 438,252 485,252 "/>
  <polygon class="fil0" points="441,392 334,392 334,348 441,348 "/>
  <polygon class="fil1" points="486,234 436,234 436,0 486,0 "/>
  <polygon class="fil1" points="630,235 583,235 583,0 630,0 "/>
  <polygon class="fil1" points="586,140 479,140 479,96 586,96 "/>
  <polygon class="fil1" points="50,424 0,424 0,190 50,190 "/>
  <polygon class="fil1" points="194,425 147,425 147,190 194,190 "/>
  <polygon class="fil1" points="150,330 43,330 43,286 150,286 "/>
  <polygon class="fil1" points="194,738 144,738 144,503 194,503 "/>
  <polygon class="fil1" points="338,738 291,738 291,503 338,503 "/>
  <polygon class="fil1" points="294,644 187,644 187,600 294,600 "/>
  <polygon class="fil1" points="632,546 582,546 582,312 632,312 "/>
  <polygon class="fil1" points="776,546 729,546 729,312 776,312 "/>
  <polygon class="fil1" points="732,452 625,452 625,408 732,408 "/>
  <polygon class="fil2" points="557,389 507,389 507,154 557,154 "/>
  <polygon class="fil2" points="701,389 654,389 654,154 701,154 "/>
  <polygon class="fil2" points="657,294 550,294 550,250 657,250 "/>
  <polygon class="fil2" points="268,329 218,329 218,95 268,95 "/>
  <polygon class="fil2" points="412,329 365,329 365,95 412,95 "/>
  <polygon class="fil2" points="368,235 261,235 261,191 368,191 "/>
  <polygon class="fil2" points="120,581 70,581 70,346 120,346 "/>
  <polygon class="fil2" points="264,581 217,581 217,346 264,346 "/>
  <polygon class="fil2" points="220,486 113,486 113,442 220,442 "/>
  <polygon class="fil2" points="413,640 363,640 363,406 413,406 "/>
  <polygon class="fil2" points="557,641 510,641 510,406 557,406 "/>
  <polygon class="fil2" points="513,546 406,546 406,502 513,502 "/>
  <path class="fil0" d="M1493 641c-7,0 -17,-1 -30,-4 -12,-2 -20,-5 -25,-8 -10,-5 -17,-10 -19,-17 -4,-7 -5,-15 -5,-25l0 -430c0,-9 1,-18 5,-25 2,-8 9,-13 19,-17 6,-2 14,-4 25,-7 12,-1 22,-3 30,-3l0 -30 -248 0 0 30c7,1 17,2 27,5 11,3 20,6 28,9 8,5 15,11 19,18 3,7 5,16 5,25l0 181 -280 0 0 -186c0,-9 2,-18 5,-25 3,-8 10,-13 19,-17 6,-2 15,-4 26,-7 11,-1 21,-3 29,-3l0 -30 -248 0 0 30c8,1 17,2 28,5 11,3 20,6 27,9 9,5 16,11 19,18 4,7 5,15 5,25l0 429c0,12 -1,20 -6,27 -3,7 -9,12 -18,16 -5,2 -13,4 -26,5 -12,1 -22,2 -29,2l0 31 248 0 0 -31c-7,0 -17,-1 -29,-4 -12,-2 -21,-5 -26,-8 -9,-5 -16,-10 -19,-17 -3,-7 -5,-15 -5,-25l0 -207 280 0 0 211c0,12 -2,20 -6,27 -4,7 -10,12 -18,16 -5,2 -14,4 -26,5 -13,1 -22,2 -29,2l0 31 248 0 0 -31zm351 -85c-17,30 -34,52 -52,64 -19,11 -40,17 -65,17 -25,0 -46,-4 -64,-14 -18,-9 -32,-22 -43,-38 -11,-18 -20,-37 -25,-59 -5,-22 -8,-46 -8,-74l276 0 0 -28c0,-25 -3,-48 -9,-69 -6,-21 -17,-40 -30,-55 -13,-17 -31,-30 -52,-39 -22,-10 -48,-15 -78,-15 -30,0 -56,6 -80,18 -24,12 -44,29 -59,48 -18,21 -30,44 -38,70 -9,26 -13,53 -13,79 0,31 4,59 12,86 8,26 20,51 36,70 16,20 37,37 63,49 25,11 54,17 88,17 38,0 71,-10 101,-29 29,-20 52,-47 69,-80l-29 -18zm-257 -139c2,-44 12,-78 32,-102 20,-25 44,-37 74,-37 18,0 32,4 43,12 12,9 20,19 26,32 6,12 11,27 13,45 3,17 5,34 5,50l-193 0zm627 -154c-11,-11 -26,-17 -43,-17 -17,0 -37,6 -59,18 -20,11 -39,29 -57,52l-2 0 0 -58 -6 -6 -139 10 0 27c9,1 17,2 23,4 8,0 14,3 19,7 8,5 13,12 18,20 4,8 6,17 6,25l0 256c0,10 -2,18 -6,25 -4,6 -10,10 -18,13 -5,2 -11,2 -18,3 -7,1 -13,1 -19,2l0 28 219 0 0 -28c-8,-1 -18,-2 -28,-3 -11,-1 -21,-4 -28,-6 -8,-3 -14,-8 -17,-14 -4,-6 -6,-14 -6,-24l0 -242c12,-20 27,-35 45,-45 17,-11 32,-17 45,-17 -1,6 -1,11 -2,15 -1,5 -2,11 -2,17 0,10 4,19 12,27 9,8 21,12 36,12 15,0 26,-5 33,-16 7,-11 10,-24 10,-38 0,-20 -5,-35 -16,-47zm413 43c-34,-40 -77,-60 -127,-60 -20,0 -41,4 -62,14 -19,9 -38,23 -56,41l-3 -1 0 -274 -6 -6 -153 10 0 27c7,1 17,2 30,4 13,2 21,4 27,9 6,4 12,11 16,20 4,10 7,19 7,29l0 410c0,27 0,55 -1,84 0,29 -2,54 -3,75l26 6 31 -48c20,12 41,21 62,28 23,7 45,11 67,11 52,0 98,-22 137,-64 39,-42 59,-94 59,-157 0,-65 -17,-117 -51,-158zm-68 297c-21,33 -48,50 -83,50 -15,0 -28,-3 -38,-8 -12,-4 -21,-11 -29,-19 -8,-8 -15,-16 -20,-26 -5,-9 -8,-16 -10,-23l0 -242c12,-13 25,-24 40,-32 14,-8 32,-11 51,-11 22,0 40,5 55,15 16,10 29,24 38,40 10,15 17,34 21,56 4,21 7,43 7,64 0,57 -10,103 -32,136zm405 -160c-16,-7 -34,-14 -53,-20 -18,-6 -34,-12 -46,-18 -13,-4 -23,-9 -32,-15 -9,-6 -15,-13 -19,-22 -4,-7 -7,-19 -7,-31 0,-16 7,-30 20,-42 13,-11 31,-17 53,-17 28,0 52,9 71,28 20,18 32,43 38,72l29 0 -6 -134 -30 0 -9 24c-12,-6 -25,-12 -42,-16 -17,-4 -33,-6 -50,-6 -42,0 -76,12 -101,35 -25,24 -37,53 -37,87 0,18 4,36 12,50 7,14 17,26 30,36 11,9 25,17 40,24 17,7 31,13 44,16 17,5 32,10 45,16 14,5 25,11 34,17 9,7 16,14 20,22 5,9 7,19 7,31 0,23 -7,40 -21,53 -15,12 -36,18 -62,18 -19,0 -37,-4 -52,-13 -15,-9 -28,-19 -39,-31 -10,-12 -19,-25 -26,-40 -7,-14 -12,-27 -14,-38l-30 0 5 143 32 0 8 -27c9,8 23,15 43,24 21,9 42,14 67,14 45,0 82,-12 111,-36 28,-25 43,-56 43,-95 0,-19 -4,-35 -10,-48 -6,-13 -14,-24 -26,-35 -11,-9 -24,-18 -40,-26zm386 180c-5,2 -16,4 -29,6 -13,0 -24,1 -31,1 -15,0 -27,-1 -36,-6 -8,-4 -15,-10 -20,-19 -5,-8 -7,-19 -9,-30 -1,-12 -2,-27 -2,-44l0 -232 118 0 0 -41 -119 0 0 -129 -76 0 0 129 -77 0 0 41 75 0 0 280c0,32 7,57 22,75 13,18 37,26 73,26 23,0 43,-2 59,-8 17,-5 34,-11 52,-18l0 -31z"/>
  <path class="fil1" d="M3669 654c30,-19 54,-46 73,-79l-27 -18c-16,27 -32,47 -51,60 -19,13 -42,20 -68,20 -38,0 -69,-16 -93,-49 -23,-34 -34,-76 -34,-127 0,-34 3,-62 9,-86 7,-24 16,-43 26,-57 11,-15 23,-25 36,-31 12,-6 25,-9 38,-9 12,0 23,2 32,4 11,4 18,9 23,18 0,6 -2,16 -6,29 -3,13 -5,26 -5,39 0,10 5,19 14,27 9,9 22,13 39,13 15,0 26,-5 33,-16 6,-11 10,-24 10,-37 0,-34 -13,-61 -39,-80 -25,-19 -58,-29 -99,-29 -30,0 -57,6 -82,18 -25,12 -46,29 -63,48 -17,21 -30,44 -39,69 -10,26 -14,53 -14,82 0,67 17,121 51,160 34,40 82,60 141,60 33,0 64,-10 95,-29zm490 -17c-10,0 -19,0 -28,0 -9,-1 -16,-2 -20,-4 -8,-5 -14,-11 -18,-17 -4,-6 -6,-15 -6,-26 0,-36 1,-70 2,-101 1,-31 1,-66 1,-107 0,-27 -3,-51 -11,-68 -8,-18 -18,-32 -33,-42 -15,-11 -30,-18 -47,-21 -18,-3 -39,-5 -62,-5 -18,0 -35,3 -53,8 -18,6 -33,13 -46,21 -15,8 -26,19 -36,31 -9,12 -13,24 -13,37 0,12 3,23 9,33 7,10 17,15 31,15 16,0 28,-5 37,-12 9,-8 13,-17 13,-27 0,-9 -2,-19 -4,-30 -3,-11 -4,-19 -4,-25 5,-4 12,-9 24,-13 11,-4 23,-7 36,-7 19,0 33,4 44,11 10,8 18,18 24,28 5,8 7,19 9,29 2,10 3,17 3,21l0 41c-14,7 -40,17 -79,30 -37,13 -63,22 -76,27 -11,3 -21,9 -32,16 -12,6 -22,13 -29,22 -8,10 -15,21 -19,34 -5,12 -7,27 -7,43 0,31 10,56 30,75 20,18 46,28 77,28 29,0 54,-5 74,-16 21,-11 41,-25 59,-46l3 0c3,20 12,34 25,45 13,10 31,15 53,15 12,0 24,-2 34,-4 10,-4 22,-7 35,-12l0 -27zm-151 -50c-10,14 -23,25 -39,35 -14,9 -32,14 -52,14 -19,0 -35,-5 -47,-16 -12,-11 -18,-29 -18,-52 0,-17 5,-33 12,-46 9,-13 20,-24 34,-34 15,-10 33,-18 51,-25 18,-7 39,-14 63,-21l-4 145zm901 57c-8,-1 -15,-2 -21,-3 -6,-1 -13,-3 -19,-6 -8,-3 -14,-7 -18,-14 -3,-6 -5,-14 -5,-24l0 -211c0,-47 -10,-82 -31,-105 -20,-24 -47,-35 -82,-35 -18,0 -34,3 -49,7 -13,4 -26,10 -37,17 -13,9 -23,17 -31,24 -7,7 -16,16 -26,26 -8,-20 -22,-38 -42,-52 -19,-15 -42,-22 -69,-22 -16,0 -32,3 -47,7 -15,4 -27,10 -36,16 -9,6 -18,14 -29,24 -10,9 -18,18 -25,25l-3 0 0 -60 -6 -6 -140 10 0 27c9,1 17,2 24,4 8,2 15,5 20,8 8,5 13,11 18,18 4,8 6,16 6,24l0 258c0,10 -2,18 -6,25 -4,6 -10,10 -18,13 -5,2 -11,2 -18,3 -7,1 -13,1 -20,2l0 28 203 0 0 -28c-8,-1 -15,-2 -21,-3 -6,-1 -12,-3 -18,-6 -8,-4 -14,-8 -17,-15 -4,-6 -6,-15 -6,-24l0 -237c2,-4 7,-10 13,-18 5,-7 12,-15 20,-21 10,-7 21,-13 33,-17 12,-4 25,-7 38,-7 20,0 37,8 50,24 13,16 20,38 20,67l0 214c0,10 -2,18 -6,25 -4,6 -10,10 -17,13 -6,2 -11,2 -17,3 -6,1 -12,1 -19,2l0 28 199 0 0 -28c-8,-1 -15,-2 -20,-3 -6,-1 -12,-3 -19,-6 -7,-3 -13,-7 -17,-14 -3,-6 -5,-14 -5,-24l0 -239c3,-5 7,-11 12,-18 6,-7 13,-14 21,-20 10,-8 20,-14 32,-18 13,-4 25,-6 39,-6 20,0 36,8 50,24 13,16 20,38 20,67l0 214c0,10 -2,18 -6,25 -3,6 -9,10 -17,13 -5,2 -11,2 -18,3 -7,1 -13,1 -20,2l0 28 203 0 0 -28zm347 -382c-21,-11 -45,-16 -71,-16 -21,0 -42,6 -63,17 -22,12 -40,25 -55,42l-3 -1 0 -47 -6 -5 -142 10 0 27c9,1 17,2 26,4 9,1 16,4 21,7 6,6 12,12 17,19 4,8 6,17 6,24l0 442c0,10 -2,18 -6,25 -3,7 -9,11 -17,15 -7,2 -14,3 -22,4 -8,1 -16,1 -25,2l0 27 232 0 0 -27c-7,0 -18,-2 -31,-4 -12,-2 -21,-5 -28,-7 -9,-4 -15,-9 -18,-15 -4,-7 -6,-15 -6,-26l0 -125 3 0c11,8 24,15 39,20 16,6 36,9 61,9 26,0 50,-5 73,-16 23,-10 44,-25 62,-45 19,-18 32,-42 44,-68 11,-27 16,-57 16,-90 0,-34 -4,-63 -14,-89 -8,-26 -21,-49 -38,-69 -15,-18 -33,-32 -55,-44zm-49 378c-15,7 -30,12 -46,12 -14,0 -26,-3 -37,-7 -10,-4 -19,-10 -27,-16 -8,-7 -14,-13 -20,-22 -5,-8 -10,-16 -12,-23l0 -246c10,-13 23,-24 38,-32 14,-10 32,-14 52,-14 22,0 41,5 56,15 15,10 28,24 37,40 10,15 17,34 21,56 4,21 7,43 7,64 0,28 -3,54 -8,76 -5,24 -14,44 -25,61 -9,15 -21,27 -36,36zm636 -4c-9,0 -16,-1 -23,-1 -7,-1 -13,-4 -18,-6 -7,-6 -13,-11 -17,-18 -4,-7 -6,-14 -6,-25l0 -328 -6 -6 -151 10 0 27c12,1 23,1 33,2 10,1 17,2 23,6 6,5 12,11 16,19 4,7 6,15 6,24l0 235c-4,6 -8,12 -13,18 -6,7 -13,13 -20,19 -8,7 -18,12 -30,17 -12,5 -26,7 -41,7 -19,0 -35,-7 -49,-22 -12,-16 -19,-38 -19,-68l0 -288 -6 -6 -139 10 0 27c9,1 16,2 24,4 8,0 14,3 19,7 8,5 13,11 16,18 5,6 6,15 6,25l0 199c0,45 10,80 29,104 19,24 47,36 83,36 22,0 38,-2 50,-6 12,-4 24,-10 37,-17 11,-6 20,-13 29,-22 8,-8 15,-15 22,-22l3 0 0 52 6 6 136 -9 0 -28zm276 -193c-17,-7 -34,-14 -53,-20 -18,-6 -34,-12 -46,-18 -13,-4 -24,-9 -32,-15 -9,-6 -15,-13 -19,-22 -4,-7 -7,-19 -7,-31 0,-16 7,-30 20,-42 13,-11 31,-17 53,-17 28,0 52,9 71,28 20,18 32,43 38,72l29 0 -6 -134 -30 0 -10 24c-11,-6 -25,-12 -41,-16 -17,-4 -34,-6 -50,-6 -42,0 -76,12 -101,35 -25,24 -38,53 -38,87 0,18 5,36 12,50 8,14 18,26 31,36 11,9 25,17 40,24 16,7 31,13 44,16 16,5 32,10 45,16 14,5 25,11 33,17 10,7 17,14 21,22 4,9 7,19 7,31 0,23 -7,40 -22,53 -14,12 -35,18 -62,18 -19,0 -36,-4 -51,-13 -15,-9 -28,-19 -39,-31 -10,-12 -19,-25 -26,-40 -8,-14 -12,-27 -15,-38l-29 0 4 143 32 0 9 -27c9,8 23,15 43,24 21,9 42,14 66,14 46,0 83,-12 111,-36 29,-25 44,-56 44,-95 0,-19 -4,-35 -10,-48 -6,-13 -15,-24 -26,-35 -11,-9 -24,-18 -40,-26z"/>
 </g>
</svg>
